<mxfile host="app.diagrams.net" modified="2021-11-10T15:18:59.090Z" agent="5.0 (Windows NT 10.0; Win64; x64) AppleWebKit/537.36 (KHTML, like Gecko) Chrome/95.0.4638.69 Safari/537.36" etag="fmGzi6BtNrjf6dR5fEPS" version="15.7.1" type="github">
  <diagram id="kgpKYQtTHZ0yAKxKKP6v" name="Page-1">
    <mxGraphModel dx="782" dy="432" grid="1" gridSize="10" guides="1" tooltips="1" connect="1" arrows="1" fold="1" page="1" pageScale="1" pageWidth="850" pageHeight="1100" math="0" shadow="0">
      <root>
        <mxCell id="0" />
        <mxCell id="1" parent="0" />
        <mxCell id="3nuBFxr9cyL0pnOWT2aG-1" value=":user" style="shape=umlLifeline;perimeter=lifelinePerimeter;container=1;collapsible=0;recursiveResize=0;rounded=0;shadow=0;strokeWidth=1;" parent="1" vertex="1">
          <mxGeometry x="70" y="70" width="100" height="440" as="geometry" />
        </mxCell>
        <mxCell id="3nuBFxr9cyL0pnOWT2aG-2" value="" style="points=[];perimeter=orthogonalPerimeter;rounded=0;shadow=0;strokeWidth=1;" parent="3nuBFxr9cyL0pnOWT2aG-1" vertex="1">
          <mxGeometry x="45" y="70" width="10" height="370" as="geometry" />
        </mxCell>
        <mxCell id="3nuBFxr9cyL0pnOWT2aG-4" value="" style="points=[];perimeter=orthogonalPerimeter;rounded=0;shadow=0;strokeWidth=1;" parent="3nuBFxr9cyL0pnOWT2aG-1" vertex="1">
          <mxGeometry x="50" y="120" width="10" height="80" as="geometry" />
        </mxCell>
        <mxCell id="aa-qgDh8WF5Hc8E2kedi-31" value="" style="points=[];perimeter=orthogonalPerimeter;rounded=0;shadow=0;strokeWidth=1;" vertex="1" parent="3nuBFxr9cyL0pnOWT2aG-1">
          <mxGeometry x="50" y="210" width="10" height="80" as="geometry" />
        </mxCell>
        <mxCell id="3nuBFxr9cyL0pnOWT2aG-5" value=":report&#xa;" style="shape=umlLifeline;perimeter=lifelinePerimeter;container=1;collapsible=0;recursiveResize=0;rounded=0;shadow=0;strokeWidth=1;" parent="1" vertex="1">
          <mxGeometry x="246" y="71" width="100" height="300" as="geometry" />
        </mxCell>
        <mxCell id="3nuBFxr9cyL0pnOWT2aG-6" value="" style="points=[];perimeter=orthogonalPerimeter;rounded=0;shadow=0;strokeWidth=1;" parent="3nuBFxr9cyL0pnOWT2aG-5" vertex="1">
          <mxGeometry x="45" y="80" width="10" height="210" as="geometry" />
        </mxCell>
        <mxCell id="aa-qgDh8WF5Hc8E2kedi-6" style="edgeStyle=orthogonalEdgeStyle;rounded=0;orthogonalLoop=1;jettySize=auto;html=1;exitX=0.967;exitY=0.168;exitDx=0;exitDy=0;exitPerimeter=0;" edge="1" parent="3nuBFxr9cyL0pnOWT2aG-5">
          <mxGeometry relative="1" as="geometry">
            <mxPoint x="54.67000000000007" y="136.60000000000002" as="sourcePoint" />
            <mxPoint x="54" y="170" as="targetPoint" />
            <Array as="points">
              <mxPoint x="55" y="135" />
              <mxPoint x="90" y="135" />
              <mxPoint x="90" y="170" />
              <mxPoint x="54" y="170" />
            </Array>
          </mxGeometry>
        </mxCell>
        <mxCell id="3nuBFxr9cyL0pnOWT2aG-8" value="request" style="verticalAlign=bottom;endArrow=block;shadow=0;strokeWidth=1;exitX=1.3;exitY=0.061;exitDx=0;exitDy=0;exitPerimeter=0;" parent="1" source="3nuBFxr9cyL0pnOWT2aG-2" edge="1">
          <mxGeometry relative="1" as="geometry">
            <mxPoint x="120" y="160" as="sourcePoint" />
            <mxPoint x="290" y="160" as="targetPoint" />
          </mxGeometry>
        </mxCell>
        <mxCell id="3nuBFxr9cyL0pnOWT2aG-9" value="return report" style="verticalAlign=bottom;endArrow=block;entryX=1;entryY=0;shadow=0;strokeWidth=1;" parent="1" edge="1">
          <mxGeometry relative="1" as="geometry">
            <mxPoint x="290" y="240" as="sourcePoint" />
            <mxPoint x="130" y="240" as="targetPoint" />
          </mxGeometry>
        </mxCell>
        <mxCell id="aa-qgDh8WF5Hc8E2kedi-1" value=":trends" style="shape=umlLifeline;perimeter=lifelinePerimeter;container=1;collapsible=0;recursiveResize=0;rounded=0;shadow=0;strokeWidth=1;" vertex="1" parent="1">
          <mxGeometry x="440" y="71" width="100" height="300" as="geometry" />
        </mxCell>
        <mxCell id="aa-qgDh8WF5Hc8E2kedi-2" value="" style="points=[];perimeter=orthogonalPerimeter;rounded=0;shadow=0;strokeWidth=1;" vertex="1" parent="aa-qgDh8WF5Hc8E2kedi-1">
          <mxGeometry x="45" y="130" width="10" height="160" as="geometry" />
        </mxCell>
        <mxCell id="aa-qgDh8WF5Hc8E2kedi-28" style="edgeStyle=orthogonalEdgeStyle;rounded=0;orthogonalLoop=1;jettySize=auto;html=1;" edge="1" parent="aa-qgDh8WF5Hc8E2kedi-1" source="aa-qgDh8WF5Hc8E2kedi-2">
          <mxGeometry relative="1" as="geometry">
            <mxPoint x="106" y="237" as="sourcePoint" />
            <mxPoint x="50" y="272" as="targetPoint" />
            <Array as="points">
              <mxPoint x="110" y="260" />
              <mxPoint x="110" y="272" />
            </Array>
          </mxGeometry>
        </mxCell>
        <mxCell id="aa-qgDh8WF5Hc8E2kedi-7" value="&lt;font style=&quot;font-size: 11px&quot;&gt;fetch report&lt;/font&gt;" style="text;html=1;align=center;verticalAlign=middle;resizable=0;points=[];autosize=1;strokeColor=none;fillColor=none;" vertex="1" parent="1">
          <mxGeometry x="335" y="217" width="70" height="20" as="geometry" />
        </mxCell>
        <mxCell id="aa-qgDh8WF5Hc8E2kedi-14" value="request for trend" style="verticalAlign=bottom;endArrow=block;shadow=0;strokeWidth=1;" edge="1" parent="1" target="3nuBFxr9cyL0pnOWT2aG-6">
          <mxGeometry relative="1" as="geometry">
            <mxPoint x="130" y="292" as="sourcePoint" />
            <mxPoint x="315.3299999999999" y="291.6" as="targetPoint" />
          </mxGeometry>
        </mxCell>
        <mxCell id="aa-qgDh8WF5Hc8E2kedi-19" value="send reports" style="verticalAlign=bottom;endArrow=block;shadow=0;strokeWidth=1;exitX=1.367;exitY=0.897;exitDx=0;exitDy=0;exitPerimeter=0;entryX=0.1;entryY=0.86;entryDx=0;entryDy=0;entryPerimeter=0;" edge="1" parent="1" source="3nuBFxr9cyL0pnOWT2aG-6" target="aa-qgDh8WF5Hc8E2kedi-2">
          <mxGeometry x="-0.1935" relative="1" as="geometry">
            <mxPoint x="374.6700000000001" y="340.71000000000004" as="sourcePoint" />
            <mxPoint x="490" y="341" as="targetPoint" />
            <mxPoint as="offset" />
          </mxGeometry>
        </mxCell>
        <mxCell id="aa-qgDh8WF5Hc8E2kedi-22" value="&lt;font style=&quot;font-size: 11px&quot;&gt;fetch trends&lt;/font&gt;" style="text;html=1;align=center;verticalAlign=middle;resizable=0;points=[];autosize=1;strokeColor=none;fillColor=none;" vertex="1" parent="1">
          <mxGeometry x="511" y="340" width="70" height="20" as="geometry" />
        </mxCell>
        <mxCell id="aa-qgDh8WF5Hc8E2kedi-23" style="edgeStyle=orthogonalEdgeStyle;rounded=0;orthogonalLoop=1;jettySize=auto;html=1;exitX=0.967;exitY=0.168;exitDx=0;exitDy=0;exitPerimeter=0;" edge="1" parent="1">
          <mxGeometry relative="1" as="geometry">
            <mxPoint x="301.6700000000001" y="159.60000000000002" as="sourcePoint" />
            <mxPoint x="301" y="193" as="targetPoint" />
            <Array as="points">
              <mxPoint x="302" y="158" />
              <mxPoint x="337" y="158" />
              <mxPoint x="337" y="193" />
              <mxPoint x="301" y="193" />
            </Array>
          </mxGeometry>
        </mxCell>
        <mxCell id="aa-qgDh8WF5Hc8E2kedi-24" value="&lt;font style=&quot;font-size: 11px&quot;&gt;validate request&lt;/font&gt;" style="text;html=1;align=center;verticalAlign=middle;resizable=0;points=[];autosize=1;strokeColor=none;fillColor=none;" vertex="1" parent="1">
          <mxGeometry x="334" y="168" width="90" height="20" as="geometry" />
        </mxCell>
        <mxCell id="aa-qgDh8WF5Hc8E2kedi-26" value="forward request" style="verticalAlign=bottom;endArrow=block;shadow=0;strokeWidth=1;exitX=1.167;exitY=0.668;exitDx=0;exitDy=0;exitPerimeter=0;entryX=-0.033;entryY=0.573;entryDx=0;entryDy=0;entryPerimeter=0;" edge="1" parent="1" source="3nuBFxr9cyL0pnOWT2aG-6" target="aa-qgDh8WF5Hc8E2kedi-2">
          <mxGeometry x="-0.1935" relative="1" as="geometry">
            <mxPoint x="375" y="290" as="sourcePoint" />
            <mxPoint x="535" y="290.06999999999994" as="targetPoint" />
            <mxPoint as="offset" />
          </mxGeometry>
        </mxCell>
        <mxCell id="aa-qgDh8WF5Hc8E2kedi-27" value="&lt;font style=&quot;font-size: 11px&quot;&gt;validate request&lt;/font&gt;" style="text;html=1;align=center;verticalAlign=middle;resizable=0;points=[];autosize=1;strokeColor=none;fillColor=none;" vertex="1" parent="1">
          <mxGeometry x="657" y="381" width="90" height="20" as="geometry" />
        </mxCell>
        <mxCell id="aa-qgDh8WF5Hc8E2kedi-34" value="" style="endArrow=none;dashed=1;html=1;dashPattern=1 3;strokeWidth=2;rounded=0;fontSize=11;entryX=0.767;entryY=1.006;entryDx=0;entryDy=0;entryPerimeter=0;" edge="1" parent="1">
          <mxGeometry width="50" height="50" relative="1" as="geometry">
            <mxPoint x="296" y="387" as="sourcePoint" />
            <mxPoint x="295.5" y="357" as="targetPoint" />
          </mxGeometry>
        </mxCell>
        <mxCell id="aa-qgDh8WF5Hc8E2kedi-35" value="" style="endArrow=none;dashed=1;html=1;dashPattern=1 3;strokeWidth=2;rounded=0;fontSize=11;entryX=0.767;entryY=1.006;entryDx=0;entryDy=0;entryPerimeter=0;" edge="1" parent="1">
          <mxGeometry width="50" height="50" relative="1" as="geometry">
            <mxPoint x="490" y="391" as="sourcePoint" />
            <mxPoint x="489.5" y="371" as="targetPoint" />
          </mxGeometry>
        </mxCell>
        <mxCell id="aa-qgDh8WF5Hc8E2kedi-36" value="" style="endArrow=classic;html=1;rounded=0;entryX=0.933;entryY=0.508;entryDx=0;entryDy=0;entryPerimeter=0;" edge="1" parent="1">
          <mxGeometry width="50" height="50" relative="1" as="geometry">
            <mxPoint x="290" y="347" as="sourcePoint" />
            <mxPoint x="130.00000000000006" y="346.5" as="targetPoint" />
          </mxGeometry>
        </mxCell>
        <mxCell id="aa-qgDh8WF5Hc8E2kedi-37" value="return trends" style="edgeLabel;html=1;align=center;verticalAlign=middle;resizable=0;points=[];" vertex="1" connectable="0" parent="aa-qgDh8WF5Hc8E2kedi-36">
          <mxGeometry x="0.2016" y="-2" relative="1" as="geometry">
            <mxPoint x="3" y="-9" as="offset" />
          </mxGeometry>
        </mxCell>
        <mxCell id="aa-qgDh8WF5Hc8E2kedi-17" value="" style="endArrow=classic;html=1;rounded=0;entryX=1.3;entryY=0.779;entryDx=0;entryDy=0;entryPerimeter=0;exitX=-0.033;exitY=0.715;exitDx=0;exitDy=0;exitPerimeter=0;" edge="1" parent="1" source="aa-qgDh8WF5Hc8E2kedi-2" target="3nuBFxr9cyL0pnOWT2aG-6">
          <mxGeometry width="50" height="50" relative="1" as="geometry">
            <mxPoint x="480" y="315" as="sourcePoint" />
            <mxPoint x="377" y="312" as="targetPoint" />
          </mxGeometry>
        </mxCell>
        <mxCell id="aa-qgDh8WF5Hc8E2kedi-18" value="request reports" style="edgeLabel;html=1;align=center;verticalAlign=middle;resizable=0;points=[];" vertex="1" connectable="0" parent="aa-qgDh8WF5Hc8E2kedi-17">
          <mxGeometry x="0.2016" y="-2" relative="1" as="geometry">
            <mxPoint x="3" y="-9" as="offset" />
          </mxGeometry>
        </mxCell>
        <mxCell id="aa-qgDh8WF5Hc8E2kedi-29" value="" style="endArrow=classic;html=1;rounded=0;exitX=0.033;exitY=0.973;exitDx=0;exitDy=0;exitPerimeter=0;entryX=1.1;entryY=0.983;entryDx=0;entryDy=0;entryPerimeter=0;" edge="1" parent="1" source="aa-qgDh8WF5Hc8E2kedi-2" target="3nuBFxr9cyL0pnOWT2aG-6">
          <mxGeometry width="50" height="50" relative="1" as="geometry">
            <mxPoint x="539" y="357" as="sourcePoint" />
            <mxPoint x="300" y="358" as="targetPoint" />
          </mxGeometry>
        </mxCell>
        <mxCell id="aa-qgDh8WF5Hc8E2kedi-30" value="return trends" style="edgeLabel;html=1;align=center;verticalAlign=middle;resizable=0;points=[];" vertex="1" connectable="0" parent="aa-qgDh8WF5Hc8E2kedi-29">
          <mxGeometry x="0.2016" y="-2" relative="1" as="geometry">
            <mxPoint x="11" y="13" as="offset" />
          </mxGeometry>
        </mxCell>
        <mxCell id="aa-qgDh8WF5Hc8E2kedi-39" style="edgeStyle=orthogonalEdgeStyle;rounded=0;orthogonalLoop=1;jettySize=auto;html=1;" edge="1" parent="1">
          <mxGeometry relative="1" as="geometry">
            <mxPoint x="495" y="294" as="sourcePoint" />
            <mxPoint x="496" y="306" as="targetPoint" />
            <Array as="points">
              <mxPoint x="550" y="294" />
              <mxPoint x="550" y="306" />
            </Array>
          </mxGeometry>
        </mxCell>
        <mxCell id="aa-qgDh8WF5Hc8E2kedi-41" value="&lt;font style=&quot;font-size: 12px&quot;&gt;&lt;b&gt;HealthBot Sequence Diagram&lt;/b&gt;&lt;/font&gt;" style="text;html=1;strokeColor=none;fillColor=none;align=center;verticalAlign=middle;whiteSpace=wrap;rounded=0;fontSize=11;" vertex="1" parent="1">
          <mxGeometry x="327" y="590" width="230" height="30" as="geometry" />
        </mxCell>
        <mxCell id="aa-qgDh8WF5Hc8E2kedi-42" value=":emergency" style="shape=umlLifeline;perimeter=lifelinePerimeter;container=1;collapsible=0;recursiveResize=0;rounded=0;shadow=0;strokeWidth=1;" vertex="1" parent="1">
          <mxGeometry x="591" y="71" width="100" height="380" as="geometry" />
        </mxCell>
        <mxCell id="aa-qgDh8WF5Hc8E2kedi-43" value="" style="points=[];perimeter=orthogonalPerimeter;rounded=0;shadow=0;strokeWidth=1;" vertex="1" parent="aa-qgDh8WF5Hc8E2kedi-42">
          <mxGeometry x="45" y="270" width="10" height="110" as="geometry" />
        </mxCell>
        <mxCell id="aa-qgDh8WF5Hc8E2kedi-47" style="edgeStyle=orthogonalEdgeStyle;rounded=0;orthogonalLoop=1;jettySize=auto;html=1;" edge="1" parent="aa-qgDh8WF5Hc8E2kedi-42">
          <mxGeometry relative="1" as="geometry">
            <mxPoint x="55" y="330" as="sourcePoint" />
            <mxPoint x="56" y="342" as="targetPoint" />
            <Array as="points">
              <mxPoint x="110" y="330" />
              <mxPoint x="110" y="342" />
            </Array>
          </mxGeometry>
        </mxCell>
        <mxCell id="aa-qgDh8WF5Hc8E2kedi-44" value="" style="endArrow=none;dashed=1;html=1;dashPattern=1 3;strokeWidth=2;rounded=0;fontSize=11;" edge="1" parent="1">
          <mxGeometry width="50" height="50" relative="1" as="geometry">
            <mxPoint x="642" y="480" as="sourcePoint" />
            <mxPoint x="642" y="452" as="targetPoint" />
            <Array as="points">
              <mxPoint x="642" y="452" />
            </Array>
          </mxGeometry>
        </mxCell>
        <mxCell id="aa-qgDh8WF5Hc8E2kedi-45" value="" style="endArrow=classic;html=1;rounded=0;fontSize=12;entryX=0;entryY=0.579;entryDx=0;entryDy=0;entryPerimeter=0;exitX=0.967;exitY=0.712;exitDx=0;exitDy=0;exitPerimeter=0;" edge="1" parent="1" source="3nuBFxr9cyL0pnOWT2aG-2" target="aa-qgDh8WF5Hc8E2kedi-43">
          <mxGeometry width="50" height="50" relative="1" as="geometry">
            <mxPoint x="130" y="405" as="sourcePoint" />
            <mxPoint x="690" y="411" as="targetPoint" />
          </mxGeometry>
        </mxCell>
        <mxCell id="aa-qgDh8WF5Hc8E2kedi-46" value="request emergency" style="edgeLabel;html=1;align=center;verticalAlign=middle;resizable=0;points=[];fontSize=12;" vertex="1" connectable="0" parent="aa-qgDh8WF5Hc8E2kedi-45">
          <mxGeometry x="-0.4126" y="4" relative="1" as="geometry">
            <mxPoint x="96" y="16" as="offset" />
          </mxGeometry>
        </mxCell>
        <mxCell id="aa-qgDh8WF5Hc8E2kedi-49" value="" style="endArrow=classic;html=1;rounded=0;fontSize=12;entryX=0.9;entryY=0.789;entryDx=0;entryDy=0;entryPerimeter=0;exitX=0.067;exitY=0.833;exitDx=0;exitDy=0;exitPerimeter=0;" edge="1" parent="1" source="aa-qgDh8WF5Hc8E2kedi-43" target="3nuBFxr9cyL0pnOWT2aG-2">
          <mxGeometry width="50" height="50" relative="1" as="geometry">
            <mxPoint x="630" y="431" as="sourcePoint" />
            <mxPoint x="175" y="440" as="targetPoint" />
          </mxGeometry>
        </mxCell>
        <mxCell id="aa-qgDh8WF5Hc8E2kedi-50" value="return info" style="edgeLabel;html=1;align=center;verticalAlign=middle;resizable=0;points=[];fontSize=12;" vertex="1" connectable="0" parent="aa-qgDh8WF5Hc8E2kedi-49">
          <mxGeometry x="-0.4126" y="4" relative="1" as="geometry">
            <mxPoint x="-111" y="6" as="offset" />
          </mxGeometry>
        </mxCell>
        <mxCell id="aa-qgDh8WF5Hc8E2kedi-51" style="edgeStyle=orthogonalEdgeStyle;rounded=0;orthogonalLoop=1;jettySize=auto;html=1;" edge="1" parent="1">
          <mxGeometry relative="1" as="geometry">
            <mxPoint x="646" y="434" as="sourcePoint" />
            <mxPoint x="647" y="446" as="targetPoint" />
            <Array as="points">
              <mxPoint x="701" y="434" />
              <mxPoint x="701" y="446" />
            </Array>
          </mxGeometry>
        </mxCell>
        <mxCell id="aa-qgDh8WF5Hc8E2kedi-33" value="" style="endArrow=none;dashed=1;html=1;dashPattern=1 3;strokeWidth=2;rounded=0;fontSize=11;entryX=0.767;entryY=1.006;entryDx=0;entryDy=0;entryPerimeter=0;" edge="1" parent="1">
          <mxGeometry width="50" height="50" relative="1" as="geometry">
            <mxPoint x="119.82999999999998" y="599.62" as="sourcePoint" />
            <mxPoint x="119.49999999999994" y="511" as="targetPoint" />
          </mxGeometry>
        </mxCell>
        <mxCell id="aa-qgDh8WF5Hc8E2kedi-52" value="&lt;font style=&quot;font-size: 11px&quot;&gt;fetch info&lt;/font&gt;" style="text;html=1;align=center;verticalAlign=middle;resizable=0;points=[];autosize=1;strokeColor=none;fillColor=none;" vertex="1" parent="1">
          <mxGeometry x="651" y="451" width="60" height="20" as="geometry" />
        </mxCell>
        <mxCell id="aa-qgDh8WF5Hc8E2kedi-53" value="&lt;font style=&quot;font-size: 11px&quot;&gt;validate request&lt;/font&gt;" style="text;html=1;align=center;verticalAlign=middle;resizable=0;points=[];autosize=1;strokeColor=none;fillColor=none;" vertex="1" parent="1">
          <mxGeometry x="501" y="278" width="90" height="20" as="geometry" />
        </mxCell>
      </root>
    </mxGraphModel>
  </diagram>
</mxfile>
